<svg width="55" height="55" viewBox="0 0 55 55" fill="none" xmlns="http://www.w3.org/2000/svg">
<g clip-path="url(#clip0_102_71)">
<path d="M0.131673 36.4031L0 32.7649L0.287048 32.7122C1.30883 35.46 3.2971 37.7915 6.93392 37.7915C9.02753 37.7915 10.8341 36.4294 10.8341 34.3087C10.8341 31.69 7.61599 30.4861 5.41705 29.5956C2.33062 28.3653 0.366052 27.2667 0.366052 24.49C0.366052 21.4261 2.90472 19.4897 6.75221 19.4897C9.13287 19.4897 10.8341 20.1431 11.8559 20.6937L11.9612 23.7313L11.7005 23.8103C10.7314 21.5341 8.90112 19.9113 5.9174 19.9113C3.79746 19.9113 1.9909 21.1416 1.9909 23.3677C1.9909 25.8283 4.68494 26.8241 6.91022 27.7383C9.81494 28.8896 12.5353 30.0408 12.5353 32.9993C12.5353 36.2714 9.49892 38.2604 6.4125 38.2604C3.66579 38.2604 1.3615 37.2909 0.131673 36.4031Z" fill="white"/>
<path d="M26.44 0C31.3857 0 35.0515 3.83053 35.0515 9.28917C35.0515 11.2861 34.4721 13.6097 33.8901 14.5133L31.1276 14.6055L31.0802 14.3737C33.1922 13.4675 34.609 11.2624 34.609 8.49883C34.609 4.80529 32.1494 1.94951 27.4118 1.94951C23.0481 1.9258 18.8688 4.57345 18.8688 9.40509C18.8688 11.9131 20.1908 13.8626 22.6979 14.7689L22.6742 15.0244L19.6562 14.653C19.0531 13.5623 18.4027 11.3546 18.4027 8.75437C18.4079 3.41428 21.3785 0 26.44 0Z" fill="white"/>
<path d="M49.8173 34.3694C48.3004 30.7575 48.0898 28.9239 44.9507 28.9239H43.2758V35.0491C43.2758 37.1962 43.5102 37.7968 44.3213 38.0339V38.3738H40.0814V38.0339C40.8925 37.7995 41.1269 37.1962 41.1269 35.0491V23.3731C41.1269 21.226 40.8925 20.6253 40.0814 20.3882V20.0483H45.2377C50.5494 20.0483 52.119 21.8029 52.119 24.1318C52.119 26.5924 50.3388 28.4523 46.9389 28.8449C50.157 29.2637 50.6548 30.8602 51.9109 34.0796C53.1671 37.2199 53.6912 38.084 54.5813 38.084C54.7393 38.084 54.8683 38.084 55 38.0576V38.3711C54.6076 38.5029 53.9282 38.5556 53.4041 38.5556C51.3895 38.5556 50.9708 37.0908 49.82 34.3667L49.8173 34.3694ZM49.8963 24.7351C49.8963 22.4062 48.3795 20.4409 44.5056 20.4409C44.1132 20.4409 43.6945 20.4672 43.2758 20.4936V28.5287H45.4747C48.4848 28.5287 49.8963 26.9586 49.8963 24.7324V24.7351Z" fill="white"/>
<path d="M18.2499 40.5342H18.5528C18.7608 41.2297 19.2954 41.4642 21.1994 41.4642H31.5516C33.4556 41.4642 33.9902 41.2323 34.1982 40.5342H34.5011V46.085C34.5011 52.471 30.4376 54.979 26.677 55.0027C21.7788 55.0264 18.2499 51.7281 18.2499 46.6198V40.5368V40.5342ZM25.7474 52.8872C30.3902 52.8872 34.1508 50.1237 34.1508 44.9443V43.3662H20.2935C19.2033 43.3662 18.5976 43.5981 18.5976 44.8758V46.5724C18.5976 50.6374 20.8966 52.8899 25.7474 52.8899V52.8872Z" fill="white"/>
<path d="M11.8532 23.7922V13.7627H41.6088V41.6776H19.4877H18.2499" fill="black"/>
<path d="M11.8532 23.7922V13.7627H41.6088V41.6776H19.4877H18.2499" stroke="white" stroke-width="1.5" stroke-miterlimit="10"/>
<path d="M32.8472 12.2476H20.5042V17.6298H32.8472V12.2476Z" fill="black"/>
<path d="M46.6624 35.0991H43.2995V41.1558H46.6624V35.0991Z" fill="black"/>
</g>
<defs>
<clipPath id="clip0_102_71">
<rect width="55" height="55" fill="white"/>
</clipPath>
</defs>
</svg>
