<svg width="29" height="29" viewBox="0 0 29 29" fill="none" xmlns="http://www.w3.org/2000/svg">
<path d="M0.0694278 19.1943L0 17.276L0.151353 17.2482C0.690113 18.697 1.73847 19.9264 3.65607 19.9264C4.75997 19.9264 5.71252 19.2082 5.71252 18.09C5.71252 16.7092 4.01571 16.0744 2.85626 15.6049C1.22887 14.9562 0.193009 14.377 0.193009 12.9129C0.193009 11.2973 1.53158 10.2764 3.56026 10.2764C4.81551 10.2764 5.71252 10.6209 6.25128 10.9112L6.30682 12.5128L6.16936 12.5545C5.65837 11.3543 4.69332 10.4986 3.12009 10.4986C2.0023 10.4986 1.04975 11.1473 1.04975 12.3211C1.04975 13.6185 2.47024 14.1436 3.64357 14.6256C5.17515 15.2326 6.60953 15.8397 6.60953 17.3996C6.60953 19.1249 5.00852 20.1736 3.38113 20.1736C1.93287 20.1736 0.717884 19.6624 0.0694278 19.1943Z" fill="white"/>
<path d="M13.941 0C16.5487 0 18.4816 2.01973 18.4816 4.89793C18.4816 5.95085 18.1761 7.17603 17.8692 7.65249L16.4126 7.70111L16.3876 7.57887C17.5013 7.10102 18.2483 5.93835 18.2483 4.4812C18.2483 2.5337 16.9514 1.02793 14.4534 1.02793C12.1525 1.01542 9.9489 2.41146 9.9489 4.95905C9.9489 6.28146 10.646 7.30938 11.9679 7.78723L11.9554 7.92197L10.3641 7.72611C10.0461 7.15103 9.70312 5.98697 9.70312 4.61594C9.7059 1.80026 11.2722 0 13.941 0Z" fill="white"/>
<path d="M25.2673 18.1224C24.4675 16.2179 24.3564 15.2511 22.7012 15.2511H21.8181V18.4808C21.8181 19.6129 21.9417 19.9296 22.3694 20.0546V20.2338H20.1338V20.0546C20.5615 19.931 20.685 19.6129 20.685 18.4808V12.3243C20.685 11.1922 20.5615 10.8755 20.1338 10.7505V10.5713H22.8526C25.6533 10.5713 26.4809 11.4964 26.4809 12.7244C26.4809 14.0218 25.5422 15.0025 23.7496 15.2095C25.4464 15.4303 25.7088 16.2721 26.3712 17.9696C27.0335 19.6254 27.3098 20.081 27.7792 20.081C27.8625 20.081 27.9305 20.081 28 20.0671V20.2324C27.7931 20.3019 27.4348 20.3296 27.1585 20.3296C26.0962 20.3296 25.8755 19.5573 25.2687 18.121L25.2673 18.1224ZM25.3089 13.0425C25.3089 11.8145 24.5091 10.7783 22.4666 10.7783C22.2597 10.7783 22.0389 10.7922 21.8181 10.806V15.0428H22.9776C24.5647 15.0428 25.3089 14.2149 25.3089 13.0411V13.0425Z" fill="white"/>
<path d="M9.6228 20.3721H9.78249C9.89218 20.7388 10.1741 20.8624 11.178 20.8624H16.6364C17.6403 20.8624 17.9222 20.7402 18.0319 20.3721H18.1916V23.2989C18.1916 26.666 16.049 27.9884 14.0662 28.0009C11.4835 28.0134 9.6228 26.2743 9.6228 23.5809V20.3735V20.3721ZM13.576 26.8855C16.024 26.8855 18.0069 25.4284 18.0069 22.6974V21.8653H10.7003C10.1255 21.8653 9.80609 21.9876 9.80609 22.6613V23.5559C9.80609 25.6992 11.0183 26.8869 13.576 26.8869V26.8855Z" fill="white"/>
<path d="M6.25 12.5451V7.25684H21.9393V21.9756H10.2754H9.6228" fill="black"/>
<path d="M6.25 12.5451V7.25684H21.9393V21.9756H10.2754H9.6228" stroke="white" stroke-miterlimit="10"/>
<path d="M17.3194 6.45801H10.8113V9.29592H17.3194V6.45801Z" fill="black"/>
<path d="M24.6038 18.5068H22.8306V21.7004H24.6038V18.5068Z" fill="black"/>
</svg>
