<svg width="17" height="17" viewBox="0 0 17 17" fill="none" xmlns="http://www.w3.org/2000/svg">
<path d="M3.07626 0.99707L15.8482 13.7697C15.9469 13.8684 16.0252 13.9855 16.0786 14.1144C16.1321 14.2433 16.1596 14.3815 16.1596 14.521C16.1597 14.6606 16.1322 14.7988 16.0788 14.9277C16.0255 15.0566 15.9472 15.1738 15.8486 15.2725C15.7499 15.3712 15.6328 15.4495 15.5039 15.5029C15.375 15.5563 15.2368 15.5838 15.0973 15.5839C14.9577 15.5839 14.8196 15.5564 14.6906 15.5031C14.5617 15.4497 14.4445 15.3715 14.3458 15.2728L11.0903 12.0173L8.58497 14.5206L5.66663 11.6022V13.4581C5.66663 13.6459 5.59201 13.8261 5.45917 13.9589C5.32633 14.0918 5.14616 14.1664 4.9583 14.1664C4.77044 14.1664 4.59027 14.0918 4.45743 13.9589C4.3246 13.8261 4.24997 13.6459 4.24997 13.4581V10.6247C4.24977 10.4442 4.18064 10.2705 4.0567 10.1393C3.93276 10.008 3.76338 9.92899 3.58315 9.91841C3.40292 9.90783 3.22545 9.96646 3.087 10.0823C2.94856 10.1982 2.85958 10.3626 2.83826 10.5419L2.83401 10.6247V11.3331C2.83401 11.5209 2.75938 11.7011 2.62654 11.8339C2.49371 11.9668 2.31354 12.0414 2.12568 12.0414C1.93781 12.0414 1.75765 11.9668 1.62481 11.8339C1.49197 11.7011 1.41734 11.5209 1.41734 11.3331V5.10965C1.38841 3.63124 1.93997 2.20036 2.95372 1.12386L3.07626 0.99707ZM3.24697 3.17165L3.21084 3.24957C2.99821 3.71956 2.87292 4.22433 2.84109 4.7392L2.83401 4.95878V5.04307C2.84226 6.09436 3.24117 7.10501 3.95318 7.87853L4.07784 8.00957L8.58568 12.5174L10.5888 10.5135L3.24697 3.17165Z" fill="black"/>
</svg>
