<svg width="80" height="80" viewBox="0 0 80 80" fill="none" xmlns="http://www.w3.org/2000/svg">
<path d="M48.9667 57.6331C49.2757 57.3247 49.5209 56.9584 49.6882 56.5552C49.8554 56.1519 49.9415 55.7197 49.9415 55.2831C49.9415 54.8465 49.8554 54.4143 49.6882 54.011C49.5209 53.6078 49.2757 53.2415 48.9667 52.9331L36.0334 39.9998L48.9667 27.0664C49.59 26.4432 49.9401 25.5979 49.9401 24.7164C49.9401 23.835 49.59 22.9897 48.9667 22.3664C48.3435 21.7432 47.4981 21.393 46.6167 21.393C45.7353 21.393 44.89 21.7432 44.2667 22.3664L28.9667 37.6664C28.6577 37.9748 28.4125 38.3411 28.2453 38.7443C28.078 39.1476 27.9919 39.5799 27.9919 40.0164C27.9919 40.453 28.078 40.8853 28.2453 41.2885C28.4125 41.6918 28.6577 42.058 28.9667 42.3664L44.2667 57.6664C45.5334 58.9331 47.6667 58.9331 48.9667 57.6331Z" fill="white" fill-opacity="0.8"/>
</svg>
