<svg width="80" height="80" viewBox="0 0 80 80" fill="none" xmlns="http://www.w3.org/2000/svg">
<path d="M31.0333 22.3669C30.7243 22.6753 30.4791 23.0416 30.3118 23.4448C30.1446 23.8481 30.0585 24.2803 30.0585 24.7169C30.0585 25.1535 30.1446 25.5857 30.3118 25.989C30.4791 26.3922 30.7243 26.7585 31.0333 27.0669L43.9666 40.0002L31.0333 52.9336C30.41 53.5568 30.0599 54.4021 30.0599 55.2836C30.0599 56.165 30.41 57.0103 31.0333 57.6336C31.6565 58.2568 32.5019 58.607 33.3833 58.607C34.2647 58.607 35.11 58.2568 35.7333 57.6336L51.0333 42.3336C51.3423 42.0252 51.5875 41.6589 51.7547 41.2557C51.922 40.8524 52.0081 40.4201 52.0081 39.9836C52.0081 39.547 51.922 39.1147 51.7547 38.7115C51.5875 38.3082 51.3423 37.9419 51.0333 37.6336L35.7333 22.3336C34.4666 21.0669 32.3333 21.0669 31.0333 22.3669Z" fill="white" fill-opacity="0.8"/>
</svg>
