<svg width="18" height="18" viewBox="0 0 18 18" fill="none" xmlns="http://www.w3.org/2000/svg">
<path d="M9.75002 1.5C9.99329 1.5 10.2342 1.54792 10.4589 1.64101C10.6837 1.73411 10.8879 1.87056 11.0599 2.04258C11.232 2.21461 11.3684 2.41882 11.4615 2.64358C11.5546 2.86833 11.6025 3.10923 11.6025 3.3525L11.6018 3.75H14.25C14.4489 3.75 14.6397 3.82902 14.7803 3.96967C14.921 4.11032 15 4.30109 15 4.5L14.9993 7.12425L13.8518 7.125C13.3817 7.12512 12.9292 7.30393 12.5861 7.62521C12.243 7.94649 12.0348 8.3862 12.0038 8.85525L12 8.9775V9.0225C11.9999 9.4927 12.1787 9.94534 12.5 10.2886C12.8213 10.6319 13.2611 10.8402 13.7303 10.8713L13.8525 10.875L14.9993 10.8742L15 13.5023C15 13.7012 14.921 13.8919 14.7803 14.0326C14.6397 14.1732 14.4489 14.2523 14.25 14.2523L11.6018 14.2515V14.6475C11.6067 14.8939 11.5625 15.1387 11.4716 15.3678C11.3808 15.5968 11.2451 15.8055 11.0727 15.9814C10.9002 16.1574 10.6943 16.2972 10.4672 16.3927C10.24 16.4881 9.99605 16.5373 9.74964 16.5373C9.50323 16.5373 9.2593 16.4881 9.03212 16.3927C8.80494 16.2972 8.59909 16.1574 8.42662 15.9814C8.25414 15.8055 8.1185 15.5968 8.02765 15.3678C7.9368 15.1387 7.89256 14.8939 7.89752 14.6475V14.2515H5.25002C5.05111 14.2515 4.86034 14.1725 4.71969 14.0318C4.57904 13.8912 4.50002 13.7004 4.50002 13.5015L4.49927 10.8532H4.10177C3.61045 10.8532 3.13926 10.6581 2.79185 10.3107C2.44444 9.96325 2.24927 9.49206 2.24927 9.00075C2.24927 8.50944 2.44444 8.03825 2.79185 7.69083C3.13926 7.34342 3.61045 7.14825 4.10177 7.14825H4.50002V4.5C4.50002 4.30109 4.57904 4.11032 4.71969 3.96967C4.86034 3.82902 5.05111 3.75 5.25002 3.75H7.89752V3.3525C7.89752 2.86119 8.09269 2.39 8.4401 2.04258C8.78751 1.69517 9.2587 1.5 9.75002 1.5Z" fill="#D90206"/>
</svg>
