<svg width="55" height="55" viewBox="0 0 55 55" fill="none" xmlns="http://www.w3.org/2000/svg">
<g clip-path="url(#clip0_1_106)">
<path d="M0.131673 36.4032L0 32.765L0.287048 32.7123C1.30883 35.4601 3.2971 37.7916 6.93392 37.7916C9.02753 37.7916 10.8341 36.4296 10.8341 34.3088C10.8341 31.6901 7.61599 30.4862 5.41705 29.5957C2.33062 28.3654 0.366052 27.2668 0.366052 24.4901C0.366052 21.4262 2.90472 19.4899 6.75221 19.4899C9.13287 19.4899 10.8341 20.1432 11.8559 20.6938L11.9612 23.7314L11.7005 23.8104C10.7314 21.5342 8.90112 19.9114 5.9174 19.9114C3.79746 19.9114 1.9909 21.1417 1.9909 23.3678C1.9909 25.8284 4.68494 26.8243 6.91022 27.7384C9.81494 28.8897 12.5353 30.041 12.5353 32.9995C12.5353 36.2715 9.49892 38.2605 6.4125 38.2605C3.66579 38.2605 1.3615 37.291 0.131673 36.4032Z" fill="#D90206"/>
<path d="M26.4401 0C31.3857 0 35.0515 3.83053 35.0515 9.28917C35.0515 11.2861 34.4721 13.6097 33.8901 14.5133L31.1276 14.6055L31.0802 14.3737C33.1923 13.4675 34.6091 11.2624 34.6091 8.49883C34.6091 4.80529 32.1494 1.94951 27.4118 1.94951C23.0481 1.9258 18.8688 4.57345 18.8688 9.40509C18.8688 11.9131 20.1908 13.8626 22.6979 14.7689L22.6742 15.0244L19.6562 14.653C19.0532 13.5623 18.4027 11.3546 18.4027 8.75437C18.408 3.41428 21.3785 0 26.4401 0Z" fill="#D90206"/>
<path d="M49.8174 34.3694C48.3005 30.7575 48.0898 28.9239 44.9507 28.9239H43.2758V35.0491C43.2758 37.1962 43.5102 37.7969 44.3213 38.034V38.3738H40.0814V38.034C40.8925 37.7995 41.1269 37.1962 41.1269 35.0491V23.3731C41.1269 21.226 40.8925 20.6253 40.0814 20.3882V20.0484H45.2378C50.5495 20.0484 52.119 21.8029 52.119 24.1318C52.119 26.5924 50.3388 28.4524 46.939 28.8449C50.1571 29.2638 50.6548 30.8603 51.911 34.0796C53.1671 37.2199 53.6912 38.084 54.5813 38.084C54.7393 38.084 54.8684 38.084 55 38.0577V38.3712C54.6076 38.5029 53.9282 38.5556 53.4041 38.5556C51.3895 38.5556 50.9708 37.0908 49.82 34.3668L49.8174 34.3694ZM49.8964 24.7351C49.8964 22.4062 48.3795 20.4409 44.5056 20.4409C44.1133 20.4409 43.6945 20.4673 43.2758 20.4936V28.5288H45.4748C48.4848 28.5288 49.8964 26.9586 49.8964 24.7325V24.7351Z" fill="#D90206"/>
<path d="M18.2499 40.5341H18.5528C18.7608 41.2296 19.2954 41.464 21.1994 41.464H31.5516C33.4556 41.464 33.9902 41.2322 34.1982 40.5341H34.5011V46.0849C34.5011 52.4709 30.4376 54.9789 26.677 55.0026C21.7788 55.0263 18.2499 51.728 18.2499 46.6197V40.5367V40.5341ZM25.7474 52.8871C30.3902 52.8871 34.1508 50.1236 34.1508 44.9442V43.3661H20.2935C19.2033 43.3661 18.5976 43.598 18.5976 44.8757V46.5723C18.5976 50.6373 20.8966 52.8898 25.7474 52.8898V52.8871Z" fill="#D90206"/>
<path d="M11.8533 23.792V13.7625H41.6088V41.6774H19.4877H18.25" fill="black"/>
<path d="M11.8533 23.792V13.7625H41.6088V41.6774H19.4877H18.25" stroke="#D90206" stroke-width="1.5" stroke-miterlimit="10"/>
<path d="M32.8473 12.2477H20.5042V17.6299H32.8473V12.2477Z" fill="black"/>
<path d="M46.6624 35.0992H43.2995V41.1558H46.6624V35.0992Z" fill="black"/>
</g>
<defs>
<clipPath id="clip0_1_106">
<rect width="55" height="55" fill="white"/>
</clipPath>
</defs>
</svg>
