<svg width="18" height="18" viewBox="0 0 18 18" fill="none" xmlns="http://www.w3.org/2000/svg">
<path d="M16.2534 11.7166L14.2404 10.7105C13.6785 10.4318 13.2059 10.0013 12.8762 9.46783C12.5465 8.93432 12.3729 8.31911 12.375 7.69194V5.62546C12.375 5.47627 12.3157 5.3332 12.2102 5.22771C12.1048 5.12222 11.9617 5.06296 11.8125 5.06296C10.9177 5.06203 10.0598 4.70615 9.42704 4.07341C8.79431 3.44068 8.43843 2.58278 8.4375 1.68796C8.4374 1.58331 8.40812 1.48077 8.35294 1.39186C8.29776 1.30295 8.21887 1.23119 8.12514 1.18466C8.03142 1.13812 7.92657 1.11865 7.82238 1.12844C7.7182 1.13823 7.61881 1.17689 7.53539 1.24007L2.11852 5.34421L2.10445 5.35546C1.98193 5.4547 1.88164 5.57858 1.81008 5.71908C1.73852 5.85958 1.69729 6.01355 1.68907 6.17101C1.68085 6.32846 1.70582 6.48589 1.76236 6.63308C1.8189 6.78026 1.90574 6.91392 2.01727 7.02538L10.0125 15.0234C10.0648 15.0756 10.1268 15.1171 10.1951 15.1453C10.2634 15.1735 10.3366 15.188 10.4105 15.188H15.75C16.0484 15.188 16.3345 15.0694 16.5455 14.8585C16.7565 14.6475 16.875 14.3613 16.875 14.063V12.7228C16.8757 12.5138 16.8178 12.3088 16.7079 12.1309C16.5981 11.9531 16.4407 11.8096 16.2534 11.7166ZM15.75 14.063H10.6432L2.8125 6.23225L3.71742 5.546L6.44484 8.27343C6.55039 8.37916 6.69362 8.43864 6.84302 8.43877C6.99242 8.4389 7.13575 8.37968 7.24148 8.27413C7.34722 8.16858 7.40669 8.02535 7.40683 7.87595C7.40696 7.72656 7.34774 7.58322 7.24219 7.47749L4.62234 4.85975L7.43484 2.72858C7.64801 3.61914 8.12718 4.42373 8.80867 5.03539C9.49015 5.64704 10.3417 6.03678 11.25 6.1528V7.69194C11.2472 8.52822 11.4788 9.34855 11.9185 10.0599C12.3582 10.7713 12.9884 11.3452 13.7377 11.7166L15.75 12.7228V14.063ZM4.97813 12.938H2.25C2.10082 12.938 1.95774 12.8787 1.85225 12.7732C1.74676 12.6677 1.6875 12.5246 1.6875 12.3755C1.6875 12.2263 1.74676 12.0832 1.85225 11.9777C1.95774 11.8722 2.10082 11.813 2.25 11.813H4.97813C5.12731 11.813 5.27038 11.8722 5.37587 11.9777C5.48136 12.0832 5.54063 12.2263 5.54063 12.3755C5.54063 12.5246 5.48136 12.6677 5.37587 12.7732C5.27038 12.8787 5.12731 12.938 4.97813 12.938ZM7.79063 14.6255C7.79063 14.7746 7.73136 14.9177 7.62587 15.0232C7.52038 15.1287 7.37731 15.188 7.22813 15.188H3.375C3.22582 15.188 3.08274 15.1287 2.97725 15.0232C2.87176 14.9177 2.8125 14.7746 2.8125 14.6255C2.8125 14.4763 2.87176 14.3332 2.97725 14.2277C3.08274 14.1222 3.22582 14.063 3.375 14.063H7.22813C7.37731 14.063 7.52038 14.1222 7.62587 14.2277C7.73136 14.3332 7.79063 14.4763 7.79063 14.6255Z" fill="black"/>
</svg>
